<svg width="1336" height="105" viewBox="0 0 1336 105" fill="none" xmlns="http://www.w3.org/2000/svg">
<path opacity="0.5" d="M0.178563 103H-0.821437V104H0.178563V103ZM0.178563 2.19999V1.19999H-0.821437V2.19999H0.178563ZM23.5066 2.19999H24.5066V1.19999H23.5066V2.19999ZM23.5066 83.992H22.5066V84.992H23.5066V83.992ZM74.0506 83.992H75.0506V82.992H74.0506V83.992ZM74.0506 103V104H75.0506V103H74.0506ZM1.17856 103V2.19999H-0.821437V103H1.17856ZM0.178563 3.19999H23.5066V1.19999H0.178563V3.19999ZM22.5066 2.19999V83.992H24.5066V2.19999H22.5066ZM23.5066 84.992H74.0506V82.992H23.5066V84.992ZM73.0506 83.992V103H75.0506V83.992H73.0506ZM74.0506 102H0.178563V104H74.0506V102ZM108.541 42.808V41.808H107.541V42.808H108.541ZM157.069 42.808H158.069V41.808H157.069V42.808ZM157.069 60.952V61.952H158.069V60.952H157.069ZM108.541 60.952H107.541V61.952H108.541V60.952ZM110.269 84.28H109.269V85.28H110.269V84.28ZM165.133 84.28H166.133V83.28H165.133V84.28ZM165.133 103V104H166.133V103H165.133ZM87.0848 103H86.0848V104H87.0848V103ZM87.0848 2.19999V1.19999H86.0848V2.19999H87.0848ZM163.261 2.19999H164.261V1.19999H163.261V2.19999ZM163.261 20.92V21.92H164.261V20.92H163.261ZM110.269 20.92V19.92H109.269V20.92H110.269ZM108.541 43.808H157.069V41.808H108.541V43.808ZM156.069 42.808V60.952H158.069V42.808H156.069ZM157.069 59.952H108.541V61.952H157.069V59.952ZM109.541 60.952V42.808H107.541V60.952H109.541ZM110.269 85.28H165.133V83.28H110.269V85.28ZM164.133 84.28V103H166.133V84.28H164.133ZM165.133 102H87.0848V104H165.133V102ZM88.0848 103V2.19999H86.0848V103H88.0848ZM87.0848 3.19999H163.261V1.19999H87.0848V3.19999ZM162.261 2.19999V20.92H164.261V2.19999H162.261ZM163.261 19.92H110.269V21.92H163.261V19.92ZM109.269 20.92V84.28H111.269V20.92H109.269ZM170.446 103L169.533 102.593L168.906 104H170.446V103ZM215.374 2.19999V1.19999H214.725L214.461 1.79288L215.374 2.19999ZM238.414 2.19999L239.327 1.7918L239.062 1.19999H238.414V2.19999ZM283.486 103V104H285.029L284.399 102.592L283.486 103ZM259.006 103L258.082 103.383L258.338 104H259.006V103ZM222.142 14.008V13.008H220.646L221.218 14.3907L222.142 14.008ZM231.358 14.008L232.282 14.392L232.857 13.008H231.358V14.008ZM194.35 103V104H195.017L195.274 103.384L194.35 103ZM192.91 81.4L191.966 81.07L191.501 82.4H192.91V81.4ZM199.102 63.688V62.688H198.392L198.158 63.358L199.102 63.688ZM250.942 63.688L251.884 63.3512L251.647 62.688H250.942V63.688ZM257.278 81.4V82.4H258.698L258.22 81.0632L257.278 81.4ZM171.36 103.407L216.288 2.6071L214.461 1.79288L169.533 102.593L171.36 103.407ZM215.374 3.19999H238.414V1.19999H215.374V3.19999ZM237.501 2.60819L282.573 103.408L284.399 102.592L239.327 1.7918L237.501 2.60819ZM283.486 102H259.006V104H283.486V102ZM259.93 102.617L223.066 13.6253L221.218 14.3907L258.082 103.383L259.93 102.617ZM222.142 15.008H231.358V13.008H222.142V15.008ZM230.435 13.624L193.427 102.616L195.274 103.384L232.282 14.392L230.435 13.624ZM194.35 102H170.446V104H194.35V102ZM193.854 81.73L200.046 64.018L198.158 63.358L191.966 81.07L193.854 81.73ZM199.102 64.688H250.942V62.688H199.102V64.688ZM250.001 64.0248L256.337 81.7368L258.22 81.0632L251.884 63.3512L250.001 64.0248ZM257.278 80.4H192.91V82.4H257.278V80.4ZM319.178 100.984L318.814 101.915L318.822 101.918L318.83 101.921L319.178 100.984ZM301.754 90.04L301.061 90.7611L301.068 90.7678L301.754 90.04ZM290.234 73.48L289.313 73.8706L289.318 73.8823L290.234 73.48ZM290.234 31.72L289.318 31.3177L289.313 31.3294L290.234 31.72ZM301.898 15.16L302.584 15.8878L301.898 15.16ZM319.466 4.35999L319.814 5.29749L319.826 5.29299L319.466 4.35999ZM365.69 4.93599L365.304 5.85834L365.308 5.86016L365.69 4.93599ZM383.834 17.896L384.512 18.6308L385.223 17.9743L384.59 17.242L383.834 17.896ZM368.858 31.72L368.133 32.4087L368.812 33.1234L369.536 32.4548L368.858 31.72ZM356.906 23.224L356.5 24.1378L356.508 24.1416L356.517 24.1452L356.906 23.224ZM318.89 29.272L318.195 28.5534L318.189 28.5591L318.183 28.5649L318.89 29.272ZM312.122 39.496L311.198 39.113L311.194 39.1227L311.19 39.1325L312.122 39.496ZM312.122 65.56L311.19 65.9235L311.194 65.9333L311.198 65.943L312.122 65.56ZM318.89 75.928L318.171 76.6234L318.183 76.6352L318.195 76.6466L318.89 75.928ZM329.258 82.552L328.894 83.4836L328.902 83.4865L329.258 82.552ZM355.898 82.696L356.214 83.6448L356.226 83.6405L355.898 82.696ZM368.714 75.064L369.5 74.4459L368.854 73.6243L368.062 74.306L368.714 75.064ZM381.962 91.912L382.564 92.7103L383.379 92.0959L382.748 91.2939L381.962 91.912ZM362.81 101.416L362.52 100.459L362.517 100.46L362.81 101.416ZM360.65 88.888H359.65V89.7561L360.509 89.8781L360.65 88.888ZM360.65 51.016V50.016H359.65V51.016H360.65ZM381.962 51.016H382.962V50.016H381.962V51.016ZM381.962 91.912L381.821 92.9021L382.962 93.0639V91.912H381.962ZM341.21 103.728C333.348 103.728 326.123 102.497 319.526 100.047L318.83 101.921C325.673 104.463 333.136 105.728 341.21 105.728V103.728ZM319.542 100.053C313.033 97.5056 307.335 93.9252 302.44 89.3122L301.068 90.7678C306.157 95.5628 312.075 99.2784 318.814 101.915L319.542 100.053ZM302.447 89.3189C297.647 84.7074 293.882 79.2963 291.149 73.0777L289.318 73.8823C292.154 80.3357 296.069 85.9646 301.061 90.7611L302.447 89.3189ZM291.155 73.0894C288.524 66.889 287.202 60.0635 287.202 52.6H285.202C285.202 60.3045 286.568 67.399 289.313 73.8705L291.155 73.0894ZM287.202 52.6C287.202 45.1365 288.524 38.311 291.155 32.1105L289.313 31.3294C286.568 37.801 285.202 44.8955 285.202 52.6H287.202ZM291.149 32.1223C293.88 25.9079 297.69 20.4989 302.584 15.8878L301.212 14.4322C296.122 19.229 292.156 24.86 289.318 31.3177L291.149 32.1223ZM302.584 15.8878C307.474 11.2797 313.214 7.74897 319.814 5.29742L319.118 3.42257C312.278 5.96301 306.306 9.63232 301.212 14.4322L302.584 15.8878ZM319.826 5.29299C326.418 2.75026 333.686 1.472 341.642 1.472V-0.528C333.47 -0.528 325.954 0.785728 319.106 3.42699L319.826 5.29299ZM341.642 1.472C350.458 1.472 358.34 2.94109 365.304 5.85833L366.076 4.01365C358.832 0.978897 350.682 -0.528 341.642 -0.528V1.472ZM365.308 5.86016C372.37 8.77905 378.288 13.0089 383.077 18.5499L384.59 17.242C379.588 11.4551 373.41 7.04494 366.072 4.01183L365.308 5.86016ZM383.156 17.1612L368.18 30.9852L369.536 32.4548L384.512 18.6308L383.156 17.1612ZM369.583 31.0312C365.852 27.1044 361.757 24.1868 357.295 22.3027L356.517 24.1452C360.695 25.9092 364.567 28.6556 368.133 32.4087L369.583 31.0312ZM357.312 22.3102C352.855 20.3291 348.011 19.344 342.794 19.344V21.344C347.753 21.344 352.317 22.2789 356.5 24.1378L357.312 22.3102ZM342.794 19.344C337.793 19.344 333.206 20.1288 329.046 21.7135L329.758 23.5825C333.662 22.0952 338.003 21.344 342.794 21.344V19.344ZM329.046 21.7135C324.893 23.2957 321.272 25.5752 318.195 28.5534L319.585 29.9906C322.46 27.2087 325.847 25.0723 329.758 23.5825L329.046 21.7135ZM318.183 28.5649C315.206 31.5419 312.878 35.0615 311.198 39.113L313.046 39.879C314.63 36.0585 316.814 32.7621 319.597 29.9791L318.183 28.5649ZM311.19 39.1325C309.603 43.199 308.818 47.6924 308.818 52.6H310.818C310.818 47.9076 311.568 43.665 313.054 39.8595L311.19 39.1325ZM308.818 52.6C308.818 57.4143 309.604 61.8593 311.19 65.9235L313.054 65.1965C311.568 61.3887 310.818 57.1937 310.818 52.6H308.818ZM311.198 65.943C312.877 69.9917 315.201 73.5545 318.171 76.6234L319.609 75.2326C316.818 72.3495 314.631 69.0003 313.046 65.177L311.198 65.943ZM318.195 76.6466C321.268 79.6208 324.837 81.9003 328.894 83.4836L329.621 81.6204C325.807 80.1317 322.464 77.9952 319.585 75.2094L318.195 76.6466ZM328.902 83.4865C333.06 85.0704 337.598 85.856 342.506 85.856V83.856C337.814 83.856 333.52 83.1056 329.614 81.6175L328.902 83.4865ZM342.506 85.856C347.22 85.856 351.791 85.1191 356.214 83.6447L355.582 81.7473C351.365 83.1529 347.008 83.856 342.506 83.856V85.856ZM356.226 83.6405C360.779 82.057 365.158 79.4427 369.366 75.822L368.062 74.306C364.013 77.7893 359.849 80.263 355.569 81.7515L356.226 83.6405ZM367.928 75.6821L381.176 92.5301L382.748 91.2939L369.5 74.4459L367.928 75.6821ZM381.36 91.1137C375.992 95.1633 369.716 98.2812 362.52 100.459L363.1 102.373C370.496 100.135 376.988 96.9167 382.564 92.7103L381.36 91.1137ZM362.517 100.46C355.407 102.64 348.306 103.728 341.21 103.728V105.728C348.514 105.728 355.813 104.608 363.103 102.372L362.517 100.46ZM361.65 88.888V51.016H359.65V88.888H361.65ZM360.65 52.016H381.962V50.016H360.65V52.016ZM380.962 51.016V91.912H382.962V51.016H380.962ZM382.102 90.9219L360.79 87.8979L360.509 89.8781L381.821 92.9021L382.102 90.9219ZM414.864 92.776L415.567 92.0647L414.864 92.776ZM402.768 2.19999V1.19999H401.768V2.19999H402.768ZM426.096 2.19999H427.096V1.19999H426.096V2.19999ZM432 78.52L431.268 79.2017L432 78.52ZM465.12 78.52L465.851 79.2017L465.851 79.2017L465.12 78.52ZM471.024 2.19999V1.19999H470.024V2.19999H471.024ZM494.064 2.19999H495.064V1.19999H494.064V2.19999ZM481.968 92.776L482.671 93.4873L481.968 92.776ZM448.416 103.728C434.302 103.728 423.397 99.8024 415.567 92.0647L414.161 93.4873C422.458 101.686 433.921 105.728 448.416 105.728V103.728ZM415.567 92.0647C407.746 84.3368 403.768 73.2495 403.768 58.648H401.768C401.768 73.6145 405.854 85.2792 414.161 93.4873L415.567 92.0647ZM403.768 58.648V2.19999H401.768V58.648H403.768ZM402.768 3.19999H426.096V1.19999H402.768V3.19999ZM425.096 2.19999V57.784H427.096V2.19999H425.096ZM425.096 57.784C425.096 67.4799 427.076 74.7031 431.268 79.2017L432.731 77.8383C429.051 73.8889 427.096 67.2881 427.096 57.784H425.096ZM431.268 79.2017C435.435 83.674 441.247 85.856 448.56 85.856V83.856C441.664 83.856 436.436 81.814 432.731 77.8383L431.268 79.2017ZM448.56 85.856C455.872 85.856 461.684 83.674 465.851 79.2017L464.388 77.8383C460.683 81.814 455.455 83.856 448.56 83.856V85.856ZM465.851 79.2017C470.043 74.7031 472.024 67.4799 472.024 57.784H470.024C470.024 67.2881 468.068 73.8889 464.388 77.8383L465.851 79.2017ZM472.024 57.784V2.19999H470.024V57.784H472.024ZM471.024 3.19999H494.064V1.19999H471.024V3.19999ZM493.064 2.19999V58.648H495.064V2.19999H493.064ZM493.064 58.648C493.064 73.2495 489.086 84.3368 481.265 92.0647L482.671 93.4873C490.978 85.2792 495.064 73.6145 495.064 58.648H493.064ZM481.265 92.0647C473.434 99.8024 462.529 103.728 448.416 103.728V105.728C462.91 105.728 474.374 101.686 482.671 93.4873L481.265 92.0647ZM538.572 42.808V41.808H537.572V42.808H538.572ZM587.1 42.808H588.1V41.808H587.1V42.808ZM587.1 60.952V61.952H588.1V60.952H587.1ZM538.572 60.952H537.572V61.952H538.572V60.952ZM540.3 84.28H539.3V85.28H540.3V84.28ZM595.164 84.28H596.164V83.28H595.164V84.28ZM595.164 103V104H596.164V103H595.164ZM517.116 103H516.116V104H517.116V103ZM517.116 2.19999V1.19999H516.116V2.19999H517.116ZM593.292 2.19999H594.292V1.19999H593.292V2.19999ZM593.292 20.92V21.92H594.292V20.92H593.292ZM540.3 20.92V19.92H539.3V20.92H540.3ZM538.572 43.808H587.1V41.808H538.572V43.808ZM586.1 42.808V60.952H588.1V42.808H586.1ZM587.1 59.952H538.572V61.952H587.1V59.952ZM539.572 60.952V42.808H537.572V60.952H539.572ZM540.3 85.28H595.164V83.28H540.3V85.28ZM594.164 84.28V103H596.164V84.28H594.164ZM595.164 102H517.116V104H595.164V102ZM518.116 103V2.19999H516.116V103H518.116ZM517.116 3.19999H593.292V1.19999H517.116V3.19999ZM592.292 2.19999V20.92H594.292V2.19999H592.292ZM593.292 19.92H540.3V21.92H593.292V19.92ZM539.3 20.92V84.28H541.3V20.92H539.3ZM654.507 103H653.507V104H654.507V103ZM654.507 2.19999V1.19999H653.507V2.19999H654.507ZM732.267 9.39999L731.663 10.1971L731.669 10.2014L732.267 9.39999ZM738.027 42.232L738.856 42.7915L738.862 42.782L738.027 42.232ZM727.371 51.16L727.795 52.0657L727.371 51.16ZM711.819 54.328L710.911 53.9075L710.253 55.328H711.819V54.328ZM714.555 48.424V47.424H713.916L713.647 48.0035L714.555 48.424ZM731.403 51.592L731.007 52.5102L731.014 52.5135L731.022 52.5167L731.403 51.592ZM742.779 60.664L741.947 61.2187L741.951 61.2255L741.956 61.2322L742.779 60.664ZM736.731 95.8L737.307 96.6176L737.314 96.6122L736.731 95.8ZM677.691 85.432H676.691V86.432H677.691V85.432ZM718.587 82.552L719.117 83.4L719.124 83.3957L718.587 82.552ZM718.587 63.688L718.02 64.512L718.035 64.5221L718.05 64.5317L718.587 63.688ZM675.963 60.52H674.963V61.52H675.963V60.52ZM675.963 43.528V42.528H674.963V43.528H675.963ZM713.835 40.648L714.377 41.4883L714.383 41.484L713.835 40.648ZM713.835 22.792L713.274 23.6199L713.289 23.6302L713.305 23.64L713.835 22.792ZM677.691 19.768V18.768H676.691V19.768H677.691ZM655.507 103V2.19999H653.507V103H655.507ZM654.507 3.19999H703.755V1.19999H654.507V3.19999ZM703.755 3.19999C716.329 3.19999 725.577 5.58647 731.663 10.1971L732.871 8.6029C726.285 3.61352 716.524 1.19999 703.755 1.19999V3.19999ZM731.669 10.2014C737.854 14.817 740.915 20.8588 740.915 28.408H742.915C742.915 20.2132 739.544 13.583 732.865 8.59856L731.669 10.2014ZM740.915 28.408C740.915 33.5168 739.663 37.9285 737.192 41.682L738.862 42.782C741.574 38.6635 742.915 33.8592 742.915 28.408H740.915ZM737.198 41.6725C734.715 45.3513 731.308 48.213 726.947 50.2543L727.795 52.0657C732.458 49.883 736.155 46.7927 738.856 42.7915L737.198 41.6725ZM726.947 50.2543C722.589 52.2942 717.554 53.328 711.819 53.328V55.328C717.796 55.328 723.129 54.2498 727.795 52.0657L726.947 50.2543ZM712.726 54.7485L715.462 48.8445L713.647 48.0035L710.911 53.9075L712.726 54.7485ZM714.555 49.424C720.78 49.424 726.257 50.4613 731.007 52.5102L731.799 50.6738C726.756 48.4987 721.002 47.424 714.555 47.424V49.424ZM731.022 52.5167C735.752 54.4643 739.379 57.3675 741.947 61.2187L743.611 60.1093C740.802 55.8965 736.846 52.7517 731.783 50.6673L731.022 52.5167ZM741.956 61.2322C744.603 65.0667 745.955 69.8026 745.955 75.496H747.955C747.955 69.4774 746.522 64.3253 743.602 60.0958L741.956 61.2322ZM745.955 75.496C745.955 83.8252 742.693 90.2862 736.147 94.9878L737.314 96.6122C744.401 91.5219 747.955 84.4467 747.955 75.496H745.955ZM736.155 94.9824C729.58 99.6124 719.789 102 706.635 102V104C719.977 104 730.249 101.588 737.306 96.6176L736.155 94.9824ZM706.635 102H654.507V104H706.635V102ZM677.691 86.432H704.907V84.432H677.691V86.432ZM704.907 86.432C711.03 86.432 715.812 85.4655 719.117 83.4L718.057 81.704C715.217 83.4785 710.879 84.432 704.907 84.432V86.432ZM719.124 83.3957C722.628 81.1659 724.339 77.6495 724.339 73.048H722.339C722.339 77.0865 720.882 79.9061 718.05 81.7083L719.124 83.3957ZM724.339 73.048C724.339 68.5326 722.62 65.0695 719.124 62.8443L718.05 64.5317C720.889 66.3385 722.339 69.1154 722.339 73.048H724.339ZM719.153 62.864C715.84 60.5861 711.042 59.52 704.907 59.52V61.52C710.867 61.52 715.189 62.5659 718.02 64.512L719.153 62.864ZM704.907 59.52H675.963V61.52H704.907V59.52ZM676.963 60.52V43.528H674.963V60.52H676.963ZM675.963 44.528H700.875V42.528H675.963V44.528ZM700.875 44.528C706.626 44.528 711.169 43.5577 714.377 41.4883L713.293 39.8077C710.548 41.5783 706.451 42.528 700.875 42.528V44.528ZM714.383 41.484C717.768 39.2629 719.443 35.9061 719.443 31.576H717.443C717.443 35.3099 716.045 38.0011 713.286 39.812L714.383 41.484ZM719.443 31.576C719.443 27.331 717.758 24.0649 714.365 21.944L713.305 23.64C716.055 25.3591 717.443 27.949 717.443 31.576H719.443ZM714.396 21.9641C711.184 19.7884 706.633 18.768 700.875 18.768V20.768C706.445 20.768 710.534 21.7636 713.274 23.6199L714.396 21.9641ZM700.875 18.768H677.691V20.768H700.875V18.768ZM676.691 19.768V85.432H678.691V19.768H676.691ZM775.848 92.776L776.551 92.0647L775.848 92.776ZM763.752 2.19999V1.19999H762.752V2.19999H763.752ZM787.08 2.19999H788.08V1.19999H787.08V2.19999ZM792.984 78.52L792.252 79.2017L792.984 78.52ZM826.104 78.52L826.836 79.2017V79.2017L826.104 78.52ZM832.008 2.19999V1.19999H831.008V2.19999H832.008ZM855.048 2.19999H856.048V1.19999H855.048V2.19999ZM842.952 92.776L843.655 93.4873L842.952 92.776ZM809.4 103.728C795.287 103.728 784.382 99.8024 776.551 92.0647L775.145 93.4873C783.442 101.686 794.905 105.728 809.4 105.728V103.728ZM776.551 92.0647C768.73 84.3368 764.752 73.2495 764.752 58.648H762.752C762.752 73.6145 766.838 85.2792 775.145 93.4873L776.551 92.0647ZM764.752 58.648V2.19999H762.752V58.648H764.752ZM763.752 3.19999H787.08V1.19999H763.752V3.19999ZM786.08 2.19999V57.784H788.08V2.19999H786.08ZM786.08 57.784C786.08 67.4799 788.061 74.7031 792.252 79.2017L793.716 77.8383C790.036 73.8889 788.08 67.2881 788.08 57.784H786.08ZM792.252 79.2017C796.42 83.674 802.231 85.856 809.544 85.856V83.856C802.649 83.856 797.42 81.814 793.716 77.8383L792.252 79.2017ZM809.544 85.856C816.857 85.856 822.668 83.674 826.836 79.2017L825.372 77.8383C821.668 81.814 816.439 83.856 809.544 83.856V85.856ZM826.836 79.2017C831.028 74.7031 833.008 67.4799 833.008 57.784H831.008C831.008 67.2881 829.053 73.8889 825.372 77.8383L826.836 79.2017ZM833.008 57.784V2.19999H831.008V57.784H833.008ZM832.008 3.19999H855.048V1.19999H832.008V3.19999ZM854.048 2.19999V58.648H856.048V2.19999H854.048ZM854.048 58.648C854.048 73.2495 850.07 84.3368 842.249 92.0647L843.655 93.4873C851.962 85.2792 856.048 73.6145 856.048 58.648H854.048ZM842.249 92.0647C834.418 99.8024 823.513 103.728 809.4 103.728V105.728C823.895 105.728 835.358 101.686 843.655 93.4873L842.249 92.0647ZM878.1 103H877.1V104H878.1V103ZM878.1 2.19999V1.19999H877.1V2.19999H878.1ZM952.836 8.536L952.385 9.4284L952.393 9.43248L952.836 8.536ZM972.42 79.24L973.267 79.772L973.27 79.7671L972.42 79.24ZM952.836 96.808L953.28 97.7045L953.288 97.7004L952.836 96.808ZM901.428 83.848H900.428V84.848H901.428V83.848ZM940.164 80.104L940.619 80.9949L940.625 80.9915L940.164 80.104ZM951.684 69.16L950.824 68.6507L950.82 68.6572L950.816 68.6639L951.684 69.16ZM951.684 36.04L950.816 36.5361L950.822 36.5467L950.829 36.5571L951.684 36.04ZM940.164 25.24L939.697 26.1238L939.707 26.1292L939.717 26.1344L940.164 25.24ZM901.428 21.352V20.352H900.428V21.352H901.428ZM879.1 103V2.19999H877.1V103H879.1ZM878.1 3.19999H923.892V1.19999H878.1V3.19999ZM923.892 3.19999C934.706 3.19999 944.195 5.28619 952.385 9.42836L953.288 7.64363C944.774 3.3378 934.967 1.19999 923.892 1.19999V3.19999ZM952.393 9.43248C960.589 13.4832 966.973 19.169 971.574 26.4919L973.267 25.428C968.46 17.775 961.788 11.8448 953.28 7.63952L952.393 9.43248ZM971.574 26.4919C976.162 33.7962 978.476 42.4852 978.476 52.6H980.476C980.476 42.1708 978.087 33.0998 973.267 25.428L971.574 26.4919ZM978.476 52.6C978.476 62.6165 976.163 71.3085 971.571 78.7129L973.27 79.7671C978.086 72.0035 980.476 62.9355 980.476 52.6H978.476ZM971.574 78.708C966.972 86.0331 960.585 91.7686 952.385 95.9156L953.288 97.7004C961.792 93.3994 968.461 87.4229 973.267 79.7719L971.574 78.708ZM952.393 95.9115C944.201 99.9605 934.709 102 923.892 102V104C934.963 104 944.768 101.911 953.28 97.7045L952.393 95.9115ZM923.892 102H878.1V104H923.892V102ZM901.428 84.848H922.74V82.848H901.428V84.848ZM922.74 84.848C929.584 84.848 935.554 83.5769 940.619 80.9949L939.71 79.2131C934.983 81.6231 929.337 82.848 922.74 82.848V84.848ZM940.625 80.9915C945.781 78.3145 949.766 74.5336 952.553 69.6561L950.816 68.6639C948.227 73.1944 944.532 76.7095 939.704 79.2165L940.625 80.9915ZM952.545 69.6693C955.434 64.788 956.86 59.0863 956.86 52.6H954.86C954.86 58.7857 953.503 64.124 950.824 68.6507L952.545 69.6693ZM956.86 52.6C956.86 46.0214 955.436 40.3149 952.54 35.5229L950.829 36.5571C953.501 40.9811 954.86 46.3146 954.86 52.6H956.86ZM952.553 35.5439C949.764 30.663 945.775 26.927 940.612 24.3456L939.717 26.1344C944.538 28.545 948.229 32.0089 950.816 36.5361L952.553 35.5439ZM940.632 24.3562C935.565 21.6733 929.589 20.352 922.74 20.352V22.352C929.332 22.352 934.972 23.6227 939.697 26.1238L940.632 24.3562ZM922.74 20.352H901.428V22.352H922.74V20.352ZM900.428 21.352V83.848H902.428V21.352H900.428ZM997.069 103H996.069V104H997.069V103ZM997.069 2.19999V1.19999H996.069V2.19999H997.069ZM1071.81 8.536L1071.35 9.4284L1071.36 9.43248L1071.81 8.536ZM1091.39 79.24L1092.24 79.772L1092.24 79.7671L1091.39 79.24ZM1071.81 96.808L1072.25 97.7045L1072.26 97.7004L1071.81 96.808ZM1020.4 83.848H1019.4V84.848H1020.4V83.848ZM1059.13 80.104L1059.59 80.9949L1059.59 80.9915L1059.13 80.104ZM1070.65 69.16L1069.79 68.6507L1069.79 68.6572L1069.78 68.6639L1070.65 69.16ZM1070.65 36.04L1069.78 36.5361L1069.79 36.5467L1069.8 36.5571L1070.65 36.04ZM1059.13 25.24L1058.67 26.1238L1058.68 26.1292L1058.69 26.1344L1059.13 25.24ZM1020.4 21.352V20.352H1019.4V21.352H1020.4ZM998.069 103V2.19999H996.069V103H998.069ZM997.069 3.19999H1042.86V1.19999H997.069V3.19999ZM1042.86 3.19999C1053.67 3.19999 1063.16 5.28619 1071.35 9.42836L1072.26 7.64363C1063.74 3.3378 1053.94 1.19999 1042.86 1.19999V3.19999ZM1071.36 9.43248C1079.56 13.4832 1085.94 19.169 1090.54 26.4919L1092.24 25.428C1087.43 17.775 1080.76 11.8448 1072.25 7.63952L1071.36 9.43248ZM1090.54 26.4919C1095.13 33.7962 1097.45 42.4852 1097.45 52.6H1099.45C1099.45 42.1708 1097.06 33.0998 1092.24 25.428L1090.54 26.4919ZM1097.45 52.6C1097.45 62.6165 1095.13 71.3085 1090.54 78.7129L1092.24 79.7671C1097.05 72.0035 1099.45 62.9355 1099.45 52.6H1097.45ZM1090.54 78.708C1085.94 86.0331 1079.55 91.7686 1071.35 95.9156L1072.26 97.7004C1080.76 93.3994 1087.43 87.4229 1092.24 79.7719L1090.54 78.708ZM1071.36 95.9115C1063.17 99.9605 1053.68 102 1042.86 102V104C1053.93 104 1063.74 101.911 1072.25 97.7045L1071.36 95.9115ZM1042.86 102H997.069V104H1042.86V102ZM1020.4 84.848H1041.71V82.848H1020.4V84.848ZM1041.71 84.848C1048.55 84.848 1054.52 83.5769 1059.59 80.9949L1058.68 79.2131C1053.95 81.6231 1048.31 82.848 1041.71 82.848V84.848ZM1059.59 80.9915C1064.75 78.3145 1068.73 74.5336 1071.52 69.6561L1069.78 68.6639C1067.2 73.1944 1063.5 76.7095 1058.67 79.2165L1059.59 80.9915ZM1071.51 69.6693C1074.4 64.788 1075.83 59.0863 1075.83 52.6H1073.83C1073.83 58.7857 1072.47 64.124 1069.79 68.6507L1071.51 69.6693ZM1075.83 52.6C1075.83 46.0214 1074.4 40.3149 1071.51 35.5229L1069.8 36.5571C1072.47 40.9811 1073.83 46.3146 1073.83 52.6H1075.83ZM1071.52 35.5439C1068.73 30.663 1064.74 26.927 1059.58 24.3456L1058.69 26.1344C1063.51 28.545 1067.2 32.0089 1069.78 36.5361L1071.52 35.5439ZM1059.6 24.3562C1054.53 21.6733 1048.56 20.352 1041.71 20.352V22.352C1048.3 22.352 1053.94 23.6227 1058.67 26.1238L1059.6 24.3562ZM1041.71 20.352H1020.4V22.352H1041.71V20.352ZM1019.4 21.352V83.848H1021.4V21.352H1019.4ZM1116.04 103H1115.04V104H1116.04V103ZM1116.04 2.19999V1.19999H1115.04V2.19999H1116.04ZM1139.37 2.19999H1140.37V1.19999H1139.37V2.19999ZM1139.37 103V104H1140.37V103H1139.37ZM1117.04 103V2.19999H1115.04V103H1117.04ZM1116.04 3.19999H1139.37V1.19999H1116.04V3.19999ZM1138.37 2.19999V103H1140.37V2.19999H1138.37ZM1139.37 102H1116.04V104H1139.37V102ZM1184.74 42.808V41.808H1183.74V42.808H1184.74ZM1233.27 42.808H1234.27V41.808H1233.27V42.808ZM1233.27 60.952V61.952H1234.27V60.952H1233.27ZM1184.74 60.952H1183.74V61.952H1184.74V60.952ZM1186.47 84.28H1185.47V85.28H1186.47V84.28ZM1241.34 84.28H1242.34V83.28H1241.34V84.28ZM1241.34 103V104H1242.34V103H1241.34ZM1163.29 103H1162.29V104H1163.29V103ZM1163.29 2.19999V1.19999H1162.29V2.19999H1163.29ZM1239.46 2.19999H1240.46V1.19999H1239.46V2.19999ZM1239.46 20.92V21.92H1240.46V20.92H1239.46ZM1186.47 20.92V19.92H1185.47V20.92H1186.47ZM1184.74 43.808H1233.27V41.808H1184.74V43.808ZM1232.27 42.808V60.952H1234.27V42.808H1232.27ZM1233.27 59.952H1184.74V61.952H1233.27V59.952ZM1185.74 60.952V42.808H1183.74V60.952H1185.74ZM1186.47 85.28H1241.34V83.28H1186.47V85.28ZM1240.34 84.28V103H1242.34V84.28H1240.34ZM1241.34 102H1163.29V104H1241.34V102ZM1164.29 103V2.19999H1162.29V103H1164.29ZM1163.29 3.19999H1239.46V1.19999H1163.29V3.19999ZM1238.46 2.19999V20.92H1240.46V2.19999H1238.46ZM1239.46 19.92H1186.47V21.92H1239.46V19.92ZM1185.47 20.92V84.28H1187.47V20.92H1185.47ZM1269.83 101.56L1269.55 102.518L1269.56 102.522L1269.83 101.56ZM1251.98 93.064L1251.07 92.653L1250.74 93.3758L1251.37 93.8579L1251.98 93.064ZM1259.9 75.496L1260.48 74.681L1259.49 73.9761L1258.99 75.085L1259.9 75.496ZM1275.16 83.128L1274.84 84.0735L1274.84 84.0767L1274.85 84.0797L1275.16 83.128ZM1304.25 84.712L1304.55 85.6671L1304.56 85.664L1304.57 85.6607L1304.25 84.712ZM1310.59 80.824L1309.81 80.1883L1310.59 80.824ZM1309.43 68.872L1308.82 69.6633L1308.83 69.6722L1308.85 69.6807L1309.43 68.872ZM1301.08 64.984L1300.79 65.9404L1300.8 65.9441L1300.81 65.9475L1301.08 64.984ZM1289.56 62.104L1289.33 63.078L1289.35 63.081L1289.36 63.0837L1289.56 62.104ZM1277.03 58.648L1276.72 59.5989L1276.73 59.6009L1277.03 58.648ZM1265.66 53.464L1265.14 54.3173L1265.66 53.464ZM1257.16 45.112L1256.31 45.6334L1256.31 45.642L1256.32 45.6504L1257.16 45.112ZM1258.6 16.168L1257.77 15.6171L1257.76 15.6212L1258.6 16.168ZM1272.71 4.79199L1273.12 5.70525L1273.13 5.70236L1272.71 4.79199ZM1315.19 2.77599L1314.95 3.74614L1314.96 3.74792L1314.97 3.74961L1315.19 2.77599ZM1331.47 9.39999L1332.39 9.77657L1332.71 9.00196L1332 8.55492L1331.47 9.39999ZM1324.27 27.112L1323.77 27.9802L1324.76 28.5472L1325.19 27.4886L1324.27 27.112ZM1310.15 21.208L1309.88 22.1695L1309.89 22.1721L1309.9 22.1746L1310.15 21.208ZM1285.24 20.776L1284.9 19.8371V19.8371L1285.24 20.776ZM1279.05 24.952L1279.84 25.5594L1279.85 25.5486L1279.86 25.5375L1279.05 24.952ZM1280.35 37.048L1279.73 37.8393L1279.75 37.8482L1279.76 37.8567L1280.35 37.048ZM1288.7 40.792L1288.43 41.7555L1288.7 40.792ZM1300.07 43.672L1299.85 44.646L1299.85 44.6471L1300.07 43.672ZM1312.6 46.984L1312.31 47.9412L1312.32 47.943L1312.6 46.984ZM1324.12 52.024L1324.64 51.1707L1324.12 52.024ZM1332.47 60.376L1331.62 60.8975L1331.63 60.906L1331.63 60.9144L1332.47 60.376ZM1331.03 89.032L1331.86 89.5906L1331.03 89.032ZM1316.78 100.408L1316.36 99.4976L1316.36 99.5L1316.78 100.408ZM1293.02 103.728C1285.04 103.728 1277.41 102.684 1270.11 100.598L1269.56 102.522C1277.04 104.66 1284.86 105.728 1293.02 105.728V103.728ZM1270.12 100.602C1262.8 98.417 1256.97 95.6311 1252.59 92.2701L1251.37 93.8579C1256.01 97.409 1262.08 100.287 1269.55 102.518L1270.12 100.602ZM1252.89 93.475L1260.81 75.907L1258.99 75.085L1251.07 92.653L1252.89 93.475ZM1259.32 76.311C1263.73 79.4468 1268.9 82.0315 1274.84 84.0735L1275.49 82.1825C1269.71 80.1925 1264.71 77.6892 1260.48 74.681L1259.32 76.311ZM1274.85 84.0797C1280.9 86.0306 1287.01 87.008 1293.16 87.008V85.008C1287.22 85.008 1281.32 84.0654 1275.47 82.1763L1274.85 84.0797ZM1293.16 87.008C1297.82 87.008 1301.63 86.5729 1304.55 85.6671L1303.95 83.7569C1301.3 84.579 1297.72 85.008 1293.16 85.008V87.008ZM1304.57 85.6607C1307.55 84.6658 1309.85 83.2869 1311.36 81.4597L1309.81 80.1883C1308.63 81.6251 1306.71 82.8382 1303.93 83.7633L1304.57 85.6607ZM1311.36 81.4597C1312.85 79.6489 1313.6 77.5522 1313.6 75.208H1311.6C1311.6 77.0878 1311.01 78.7351 1309.81 80.1883L1311.36 81.4597ZM1313.6 75.208C1313.6 72.2111 1312.4 69.7939 1310.02 68.0633L1308.85 69.6807C1310.69 71.0221 1311.6 72.8289 1311.6 75.208H1313.6ZM1310.04 68.0807C1307.8 66.3475 1304.89 65.0039 1301.35 64.0205L1300.81 65.9475C1304.19 66.8841 1306.84 68.1325 1308.82 69.6633L1310.04 68.0807ZM1301.37 64.0276C1297.88 62.9609 1294.01 61.9935 1289.76 61.1243L1289.36 63.0837C1293.56 63.9426 1297.37 64.8951 1300.79 65.9404L1301.37 64.0276ZM1289.79 61.13C1285.69 60.1763 1281.54 59.0314 1277.34 57.6951L1276.73 59.6009C1280.98 60.9526 1285.18 62.1117 1289.33 63.078L1289.79 61.13ZM1277.34 57.6971C1273.28 56.3756 1269.56 54.6792 1266.18 52.6107L1265.14 54.3173C1268.66 56.4728 1272.53 58.2324 1276.72 59.5989L1277.34 57.6971ZM1266.18 52.6107C1262.85 50.5789 1260.13 47.9033 1258 44.5736L1256.32 45.6504C1258.61 49.2327 1261.55 52.125 1265.14 54.3173L1266.18 52.6107ZM1258.01 44.5905C1256.03 41.335 1254.99 37.1146 1254.99 31.864H1252.99C1252.99 37.3654 1254.07 41.977 1256.31 45.6334L1258.01 44.5905ZM1254.99 31.864C1254.99 26.293 1256.48 21.2519 1259.44 16.7148L1257.76 15.6212C1254.58 20.4921 1252.99 25.915 1252.99 31.864H1254.99ZM1259.44 16.7188C1262.48 12.1057 1267.02 8.42639 1273.12 5.70523L1272.31 3.87876C1265.93 6.7256 1261.06 10.6303 1257.77 15.6172L1259.44 16.7188ZM1273.13 5.70236C1279.29 2.89886 1287.06 1.472 1296.47 1.472V-0.528C1286.88 -0.528 1278.8 0.925133 1272.3 3.88163L1273.13 5.70236ZM1296.47 1.472C1302.73 1.472 1308.89 2.22998 1314.95 3.74614L1315.44 1.80585C1309.21 0.250015 1302.89 -0.528 1296.47 -0.528V1.472ZM1314.97 3.74961C1321.01 5.16751 1326.33 7.3361 1330.93 10.2451L1332 8.55492C1327.19 5.51188 1321.66 3.26447 1315.42 1.80238L1314.97 3.74961ZM1330.54 9.02341L1323.34 26.7354L1325.19 27.4886L1332.39 9.77657L1330.54 9.02341ZM1324.76 26.2438C1319.99 23.5175 1315.21 21.514 1310.41 20.2414L1309.9 22.1746C1314.51 23.398 1319.13 25.3305 1323.77 27.9802L1324.76 26.2438ZM1310.43 20.2465C1305.64 18.8791 1300.94 18.192 1296.33 18.192V20.192C1300.74 20.192 1305.26 20.8489 1309.88 22.1695L1310.43 20.2465ZM1296.33 18.192C1291.75 18.192 1287.93 18.7264 1284.9 19.8371L1285.59 21.7149C1288.32 20.7136 1291.88 20.192 1296.33 20.192V18.192ZM1284.9 19.8371C1281.91 20.933 1279.64 22.4203 1278.24 24.3665L1279.86 25.5375C1280.95 24.0277 1282.81 22.731 1285.59 21.7149L1284.9 19.8371ZM1278.26 24.3445C1276.86 26.1643 1276.18 28.3019 1276.18 30.712H1278.18C1278.18 28.7061 1278.74 27.0036 1279.84 25.5594L1278.26 24.3445ZM1276.18 30.712C1276.18 33.6243 1277.39 36.0245 1279.73 37.8393L1280.96 36.2567C1279.08 34.8075 1278.18 32.9837 1278.18 30.712H1276.18ZM1279.76 37.8567C1281.99 39.484 1284.9 40.7746 1288.43 41.7555L1288.96 39.8285C1285.58 38.8894 1282.92 37.684 1280.93 36.2393L1279.76 37.8567ZM1288.43 41.7555C1291.9 42.7199 1295.71 43.6834 1299.85 44.646L1300.3 42.698C1296.18 41.7406 1292.41 40.7841 1288.96 39.8285L1288.43 41.7555ZM1299.85 44.6471C1304.05 45.602 1308.21 46.7 1312.31 47.9412L1312.89 46.0268C1308.74 44.772 1304.54 43.662 1300.29 42.6969L1299.85 44.6471ZM1312.32 47.943C1316.47 49.1684 1320.22 50.8145 1323.6 52.8773L1324.64 51.1707C1321.11 49.0095 1317.19 47.2955 1312.88 46.025L1312.32 47.943ZM1323.6 52.8773C1326.92 54.9066 1329.59 57.5768 1331.62 60.8975L1333.33 59.8545C1331.13 56.2632 1328.23 53.3654 1324.64 51.1707L1323.6 52.8773ZM1331.63 60.9144C1333.71 64.1693 1334.79 68.3366 1334.79 73.48H1336.79C1336.79 68.0634 1335.65 63.4946 1333.32 59.8376L1331.63 60.9144ZM1334.79 73.48C1334.79 78.9447 1333.26 83.9342 1330.2 88.4734L1331.86 89.5906C1335.14 84.7217 1336.79 79.3433 1336.79 73.48H1334.79ZM1330.2 88.4734C1327.16 92.9925 1322.57 96.6768 1316.36 99.4976L1317.19 101.318C1323.66 98.3792 1328.57 94.4795 1331.86 89.5906L1330.2 88.4734ZM1316.36 99.5C1310.29 102.3 1302.53 103.728 1293.02 103.728V105.728C1302.71 105.728 1310.78 104.276 1317.2 101.316L1316.36 99.5Z" fill="white"/>
</svg>
